<svg xmlns="http://www.w3.org/2000/svg" width="1200" height="630" viewBox="0 0 1200 630" font-family="-apple-system, BlinkMacSystemFont, 'Segoe UI', Roboto, sans-serif">
  <rect width="1200" height="630" fill="#0b0b0d"/>

  <!-- Left: scattered lines, deliberately unreadable as a group. -->
  <g fill="#3f3f46">
    <rect x="80" y="300" width="330" height="9" rx="4"/>
    <rect x="80" y="326" width="286" height="9" rx="4"/>
    <rect x="80" y="352" width="352" height="9" rx="4"/>
    <rect x="80" y="378" width="240" height="9" rx="4"/>
    <rect x="80" y="404" width="318" height="9" rx="4"/>
    <rect x="80" y="430" width="272" height="9" rx="4"/>
    <rect x="80" y="456" width="340" height="9" rx="4"/>
  </g>
  <rect x="80" y="482" width="300" height="9" rx="4" fill="#be123c" opacity="0.75"/>
  <text x="80" y="272" fill="#71717a" font-size="17" font-family="ui-monospace, SFMono-Regular, Menlo, monospace" letter-spacing="1.5">BEFORE</text>

  <!-- Arrow. -->
  <path d="M520 396h64" stroke="#5eead4" stroke-width="3" stroke-linecap="round"/>
  <path d="M574 386l12 10-12 10" stroke="#5eead4" stroke-width="3" stroke-linecap="round" stroke-linejoin="round" fill="none"/>

  <!-- Right: one record. -->
  <rect x="694" y="292" width="426" height="207" rx="14" fill="#161618" stroke="#27272a" stroke-width="2"/>
  <g fill="#5eead4">
    <rect x="722" y="318" width="230" height="9" rx="4"/>
    <rect x="722" y="344" width="150" height="9" rx="4" opacity="0.65"/>
    <rect x="722" y="370" width="290" height="9" rx="4" opacity="0.65"/>
    <rect x="722" y="396" width="256" height="9" rx="4" opacity="0.65"/>
    <rect x="722" y="422" width="310" height="9" rx="4" opacity="0.65"/>
    <rect x="722" y="448" width="196" height="9" rx="4" opacity="0.65"/>
  </g>
  <rect x="694" y="292" width="4" height="207" rx="2" fill="#5eead4"/>
  <text x="694" y="272" fill="#5eead4" font-size="17" font-family="ui-monospace, SFMono-Regular, Menlo, monospace" letter-spacing="1.5">AFTER</text>

  <!-- Wordmark. -->
  <rect x="80" y="88" width="52" height="52" rx="12" fill="#0f766e"/>
  <path d="M90 100c0 10 7 15 17 19" stroke="#99f6e4" stroke-width="3.4" stroke-linecap="round" fill="none"/>
  <circle cx="96" cy="105" r="2.6" fill="#99f6e4"/>
  <circle cx="102.5" cy="111.5" r="2.6" fill="#99f6e4"/>
  <rect x="109" y="120" width="14" height="12" rx="2" fill="#99f6e4"/>
  <text x="148" y="128" fill="#fafafa" font-size="42" font-weight="600" letter-spacing="-1">chiplog</text>

  <text x="80" y="200" fill="#d4d4d8" font-size="34" font-weight="500" letter-spacing="-0.5">One wide log event per operation,</text>
  <text x="80" y="240" fill="#71717a" font-size="34" font-weight="500" letter-spacing="-0.5">instead of scattered lines you have to reassemble.</text>

  <text x="80" y="570" fill="#71717a" font-size="21" font-family="ui-monospace, SFMono-Regular, Menlo, monospace">npm install chiplog</text>
  <text x="1120" y="570" fill="#52525b" font-size="21" text-anchor="end">chiplog.dev</text>
</svg>
